<?xml version="1.0" encoding="UTF-8" standalone="no"?><!DOCTYPE svg PUBLIC "-//W3C//DTD SVG 1.1//EN" "http://www.w3.org/Graphics/SVG/1.1/DTD/svg11.dtd"><!-- Generated by graphviz version 2.40.1 (20161225.0304)
 --><!-- Title: G Pages: 1 --><svg xmlns="http://www.w3.org/2000/svg" xmlns:xlink="http://www.w3.org/1999/xlink" width="625pt" height="310pt" viewBox="0.00 0.00 624.65 310.40">
<g id="graph0" class="graph" transform="scale(1 1) rotate(0) translate(4 306.4)">
<title>G</title>
<polygon fill="#ffffff" stroke="transparent" points="-4,4 -4,-306.4 620.6519,-306.4 620.6519,4 -4,4"/>
<!-- search -->
<g id="node1" class="node">
<title>search</title>
<ellipse fill="none" stroke="#000000" cx="103.3891" cy="-195.6" rx="37.1174" ry="18"/>
<text text-anchor="middle" x="103.3891" y="-191.4" font-family="Times,serif" font-size="14.00" fill="#000000">Search</text>
</g>
<!-- nn_db -->
<g id="node4" class="node">
<title>nn_db</title>
<ellipse fill="none" stroke="#000000" cx="160.3891" cy="-106.8" rx="98.9762" ry="18"/>
<text text-anchor="middle" x="160.3891" y="-102.6" font-family="Times,serif" font-size="14.00" fill="#000000">Nearest Neighbors DB</text>
</g>
<!-- search&#45;&gt;nn_db -->
<g id="edge3" class="edge">
<title>search-&gt;nn_db</title>
<path fill="none" stroke="#000000" d="M99.4894,-177.3894C98.1577,-166.6702 98.2295,-153.2173 104.0181,-142.8 106.7324,-137.9152 110.4184,-133.5947 114.6147,-129.799"/>
<polygon fill="#000000" stroke="#000000" points="116.908,-132.4485 122.6196,-123.525 112.5899,-126.939 116.908,-132.4485"/>
<text text-anchor="middle" x="136.0746" y="-147" font-family="Times,serif" font-size="14.00" fill="#000000">get ranking</text>
</g>
<!-- embedding_service -->
<g id="node5" class="node">
<title>embedding_service</title>
<ellipse fill="none" stroke="#000000" cx="364.3891" cy="-106.8" rx="86.8609" ry="18"/>
<text text-anchor="middle" x="364.3891" y="-102.6" font-family="Times,serif" font-size="14.00" fill="#000000">Embedding Service</text>
</g>
<!-- search&#45;&gt;embedding_service -->
<g id="edge4" class="edge">
<title>search-&gt;embedding_service</title>
<path fill="none" stroke="#000000" d="M134.0966,-185.1524C177.101,-170.521 255.9682,-143.688 309.2826,-125.5489"/>
<polygon fill="#000000" stroke="#000000" points="310.586,-128.8025 318.9258,-122.268 308.3313,-122.1755 310.586,-128.8025"/>
<text text-anchor="middle" x="298.7969" y="-147" font-family="Times,serif" font-size="14.00" fill="#000000">get embedding</text>
</g>
<!-- frontend -->
<g id="node2" class="node">
<title>frontend</title>
<ellipse fill="none" stroke="#000000" cx="59.3891" cy="-284.4" rx="45.8079" ry="18"/>
<text text-anchor="middle" x="59.3891" y="-280.2" font-family="Times,serif" font-size="14.00" fill="#000000">Frontend</text>
</g>
<!-- frontend&#45;&gt;search -->
<g id="edge1" class="edge">
<title>frontend-&gt;search</title>
<path fill="none" stroke="#000000" d="M68.2931,-266.43C74.5364,-253.8299 82.992,-236.765 90.0391,-222.5426"/>
<polygon fill="#000000" stroke="#000000" points="93.3447,-223.7546 94.6484,-213.2402 87.0724,-220.6466 93.3447,-223.7546"/>
<text text-anchor="middle" x="117.0746" y="-235.8" font-family="Times,serif" font-size="14.00" fill="#000000">get ranking</text>
</g>
<!-- temp_db -->
<g id="node3" class="node">
<title>temp_db</title>
<ellipse fill="none" stroke="#000000" cx="49.3891" cy="-18" rx="49.2784" ry="18"/>
<text text-anchor="middle" x="49.3891" y="-13.8" font-family="Times,serif" font-size="14.00" fill="#000000">Temp DB</text>
</g>
<!-- frontend&#45;&gt;temp_db -->
<g id="edge2" class="edge">
<title>frontend-&gt;temp_db</title>
<path fill="none" stroke="#000000" d="M58.0431,-266.2242C56.3012,-241.9389 53.3151,-197.5573 51.8393,-159.6 50.3146,-120.3865 49.7387,-75.0274 49.5211,-46.4291"/>
<polygon fill="#000000" stroke="#000000" points="53.0205,-46.3134 49.4541,-36.3369 46.0207,-46.36 53.0205,-46.3134"/>
<text text-anchor="middle" x="74.164" y="-147" font-family="Times,serif" font-size="14.00" fill="#000000">uploads</text>
</g>
<!-- embedding_service&#45;&gt;temp_db -->
<g id="edge5" class="edge">
<title>embedding_service-&gt;temp_db</title>
<path fill="none" stroke="#000000" d="M312.7259,-92.2359C253.3277,-75.4913 156.5507,-48.2094 98.3257,-31.7955"/>
<polygon fill="#000000" stroke="#000000" points="99.1969,-28.4047 88.6223,-29.06 97.2975,-35.1421 99.1969,-28.4047"/>
<text text-anchor="middle" x="262.995" y="-58.2" font-family="Times,serif" font-size="14.00" fill="#000000">download</text>
</g>
<!-- learning_service -->
<g id="node6" class="node">
<title>learning_service</title>
<ellipse fill="none" stroke="#000000" cx="539.3891" cy="-195.6" rx="77.0265" ry="18"/>
<text text-anchor="middle" x="539.3891" y="-191.4" font-family="Times,serif" font-size="14.00" fill="#000000">Learning Service</text>
</g>
<!-- learning_service&#45;&gt;embedding_service -->
<g id="edge6" class="edge">
<title>learning_service-&gt;embedding_service</title>
<path fill="none" stroke="#000000" d="M506.883,-179.1055C478.5763,-164.7419 437.3563,-143.8257 406.5242,-128.1806"/>
<polygon fill="#000000" stroke="#000000" points="407.8163,-124.9114 397.3149,-123.5075 404.6487,-131.1538 407.8163,-124.9114"/>
<text text-anchor="middle" x="506.6896" y="-147" font-family="Times,serif" font-size="14.00" fill="#000000">upload model</text>
</g>
<!-- web_crawler -->
<g id="node7" class="node">
<title>web_crawler</title>
<ellipse fill="none" stroke="#000000" cx="361.3891" cy="-284.4" rx="60.752" ry="18"/>
<text text-anchor="middle" x="361.3891" y="-280.2" font-family="Times,serif" font-size="14.00" fill="#000000">Web crawler</text>
</g>
<!-- web_crawler&#45;&gt;nn_db -->
<g id="edge7" class="edge">
<title>web_crawler-&gt;nn_db</title>
<path fill="none" stroke="#000000" d="M351.1557,-266.4237C330.4516,-230.288 284.6079,-151.5355 273.3891,-142.8 262.9677,-134.6856 250.6739,-128.3773 238.1002,-123.4795"/>
<polygon fill="#000000" stroke="#000000" points="239.0513,-120.102 228.457,-120.0026 236.677,-126.687 239.0513,-120.102"/>
<text text-anchor="middle" x="339.4417" y="-191.4" font-family="Times,serif" font-size="14.00" fill="#000000">upload</text>
</g>
<!-- web_crawler&#45;&gt;embedding_service -->
<g id="edge8" class="edge">
<title>web_crawler-&gt;embedding_service</title>
<path fill="none" stroke="#000000" d="M361.6932,-266.3934C362.2166,-235.412 363.291,-171.806 363.9138,-134.9346"/>
<polygon fill="#000000" stroke="#000000" points="367.4146,-134.912 364.0841,-124.8543 360.4156,-134.7937 367.4146,-134.912"/>
<text text-anchor="middle" x="404.7969" y="-191.4" font-family="Times,serif" font-size="14.00" fill="#000000">get embedding</text>
</g>
<!-- web_crawler&#45;&gt;learning_service -->
<g id="edge9" class="edge">
<title>web_crawler-&gt;learning_service</title>
<path fill="none" stroke="#000000" d="M392.8021,-268.7288C421.8704,-254.2273 465.3016,-232.5605 497.3489,-216.5729"/>
<polygon fill="#000000" stroke="#000000" points="499.0959,-219.6127 506.4818,-212.0167 495.971,-213.3489 499.0959,-219.6127"/>
<text text-anchor="middle" x="510.5157" y="-235.8" font-family="Times,serif" font-size="14.00" fill="#000000">initiate learning</text>
</g>
</g>
</svg>