<?xml version="1.0" encoding="UTF-8" standalone="no"?><!DOCTYPE svg PUBLIC "-//W3C//DTD SVG 1.1//EN" "http://www.w3.org/Graphics/SVG/1.1/DTD/svg11.dtd"><!-- Generated by graphviz version 2.40.1 (20161225.0304)
 --><!-- Title: G Pages: 1 --><svg xmlns="http://www.w3.org/2000/svg" xmlns:xlink="http://www.w3.org/1999/xlink" width="463pt" height="310pt" viewBox="0.00 0.00 462.54 310.40">
<g id="graph0" class="graph" transform="scale(1 1) rotate(0) translate(4 306.4)">
<title>G</title>
<polygon fill="#ffffff" stroke="transparent" points="-4,4 -4,-306.4 458.5379,-306.4 458.5379,4 -4,4"/>
<!-- search -->
<g id="node1" class="node">
<title>search</title>
<ellipse fill="none" stroke="#000000" cx="302.9881" cy="-195.6" rx="37.1174" ry="18"/>
<text text-anchor="middle" x="302.9881" y="-191.4" font-family="Times,serif" font-size="14.00" fill="#000000">Search</text>
</g>
<!-- nn_db -->
<g id="node4" class="node">
<title>nn_db</title>
<ellipse fill="none" stroke="#000000" cx="98.9881" cy="-106.8" rx="98.9762" ry="18"/>
<text text-anchor="middle" x="98.9881" y="-102.6" font-family="Times,serif" font-size="14.00" fill="#000000">Nearest Neighbors DB</text>
</g>
<!-- search&#45;&gt;nn_db -->
<g id="edge3" class="edge">
<title>search-&gt;nn_db</title>
<path fill="none" stroke="#000000" d="M275.0505,-183.4389C242.016,-169.0592 186.4946,-144.891 146.6268,-127.5369"/>
<polygon fill="#000000" stroke="#000000" points="147.9258,-124.2851 137.3599,-123.503 145.1319,-130.7034 147.9258,-124.2851"/>
<text text-anchor="middle" x="251.6736" y="-147" font-family="Times,serif" font-size="14.00" fill="#000000">get ranking</text>
</g>
<!-- embedding_service -->
<g id="node5" class="node">
<title>embedding_service</title>
<ellipse fill="none" stroke="#000000" cx="302.9881" cy="-106.8" rx="86.8609" ry="18"/>
<text text-anchor="middle" x="302.9881" y="-102.6" font-family="Times,serif" font-size="14.00" fill="#000000">Embedding Service</text>
</g>
<!-- search&#45;&gt;embedding_service -->
<g id="edge4" class="edge">
<title>search-&gt;embedding_service</title>
<path fill="none" stroke="#000000" d="M302.9881,-177.2006C302.9881,-165.0949 302.9881,-149.0076 302.9881,-135.2674"/>
<polygon fill="#000000" stroke="#000000" points="306.4882,-134.872 302.9881,-124.872 299.4882,-134.8721 306.4882,-134.872"/>
<text text-anchor="middle" x="344.3959" y="-147" font-family="Times,serif" font-size="14.00" fill="#000000">get embedding</text>
</g>
<!-- frontend -->
<g id="node2" class="node">
<title>frontend</title>
<ellipse fill="none" stroke="#000000" cx="360.9881" cy="-284.4" rx="45.8079" ry="18"/>
<text text-anchor="middle" x="360.9881" y="-280.2" font-family="Times,serif" font-size="14.00" fill="#000000">Frontend</text>
</g>
<!-- frontend&#45;&gt;search -->
<g id="edge1" class="edge">
<title>frontend-&gt;search</title>
<path fill="none" stroke="#000000" d="M349.5292,-266.856C341.0539,-253.8801 329.377,-236.0024 319.8399,-221.4006"/>
<polygon fill="#000000" stroke="#000000" points="322.6247,-219.2638 314.2259,-212.8054 316.764,-223.0918 322.6247,-219.2638"/>
<text text-anchor="middle" x="369.6736" y="-235.8" font-family="Times,serif" font-size="14.00" fill="#000000">get ranking</text>
</g>
<!-- temp_db -->
<g id="node3" class="node">
<title>temp_db</title>
<ellipse fill="none" stroke="#000000" cx="360.9881" cy="-18" rx="49.2784" ry="18"/>
<text text-anchor="middle" x="360.9881" y="-13.8" font-family="Times,serif" font-size="14.00" fill="#000000">Temp DB</text>
</g>
<!-- frontend&#45;&gt;temp_db -->
<g id="edge2" class="edge">
<title>frontend-&gt;temp_db</title>
<path fill="none" stroke="#000000" d="M386.653,-268.9988C393.5787,-263.448 400.1981,-256.5159 403.9881,-248.4 407.1474,-241.6347 404.1188,-239.0655 403.9881,-231.6 402.6058,-152.6175 429.3002,-126.0838 396.9881,-54 395.0132,-49.5942 392.2419,-45.4295 389.1042,-41.6036"/>
<polygon fill="#000000" stroke="#000000" points="391.6545,-39.2064 382.2864,-34.2576 386.5237,-43.9682 391.6545,-39.2064"/>
<text text-anchor="middle" x="432.763" y="-147" font-family="Times,serif" font-size="14.00" fill="#000000">uploads</text>
</g>
<!-- embedding_service&#45;&gt;temp_db -->
<g id="edge5" class="edge">
<title>embedding_service-&gt;temp_db</title>
<path fill="none" stroke="#000000" d="M314.7253,-88.83C323.1133,-75.9876 334.5308,-58.507 343.9243,-44.1253"/>
<polygon fill="#000000" stroke="#000000" points="346.9282,-45.9266 349.4663,-35.6402 341.0675,-42.0986 346.9282,-45.9266"/>
<text text-anchor="middle" x="365.594" y="-58.2" font-family="Times,serif" font-size="14.00" fill="#000000">download</text>
</g>
</g>
</svg>